<svg width="109" height="57" viewBox="0 0 109 57" fill="none" xmlns="http://www.w3.org/2000/svg">
<g clip-path="url(#clip0_2009_2)">
<path d="M15.7372 45.08C15.5239 45.08 15.3905 44.9733 15.3372 44.76C15.2839 44.6 15.2572 44.4667 15.2572 44.36C15.2572 43.9867 15.5772 43.16 16.2172 41.88C16.8572 40.6 17.6839 39.1067 18.6972 37.4C19.7105 35.6933 20.7505 33.9867 21.8172 32.28C22.8839 30.52 23.8439 28.9733 24.6972 27.64C25.5505 26.3067 26.1372 25.3733 26.4572 24.84C25.7639 25 24.8572 25.2667 23.7372 25.64C22.6705 25.96 21.6039 26.4133 20.5372 27C19.5239 27.5333 18.6439 28.1733 17.8972 28.92C17.2039 29.6133 16.8572 30.44 16.8572 31.4C16.8572 32.1467 17.0705 32.68 17.4972 33C17.9772 33.32 18.2172 33.6133 18.2172 33.88C18.2172 33.9333 18.1372 33.9867 17.9772 34.04C17.8705 34.04 17.7905 34.04 17.7372 34.04C16.6705 34.04 15.7905 33.5333 15.0972 32.52C14.4039 31.5067 14.0572 30.52 14.0572 29.56C14.0572 28.92 14.1639 28.3867 14.3772 27.96C15.0172 25.9867 16.1905 24.4667 17.8972 23.4C19.6572 22.28 21.6039 21.48 23.7372 21C25.8705 20.4667 27.8172 20.12 29.5772 19.96C30.4839 18.4667 31.4172 16.9733 32.3772 15.48C33.3905 13.9867 34.3505 12.4933 35.2572 11C34.7772 10.52 34.5372 10.0133 34.5372 9.48C34.5372 9.10666 34.7239 8.62666 35.0972 8.04C35.5239 7.45333 35.9772 6.89333 36.4572 6.36C36.9905 5.82666 37.4172 5.50666 37.7372 5.4C38.0039 5.29333 38.5105 5.18666 39.2572 5.08C40.0039 4.97333 40.5372 4.92 40.8572 4.92H41.0972C41.4172 4.92 41.7639 4.97333 42.1372 5.08C42.5105 5.18666 42.6972 5.37333 42.6972 5.64C42.6972 5.85333 42.5905 6.12 42.3772 6.44C42.1639 6.76 41.9772 7 41.8172 7.16C41.0172 8.17333 40.1905 9.18666 39.3372 10.2C38.4839 11.2133 37.6305 12.2533 36.7772 13.32C35.9239 14.3867 35.0705 15.48 34.2172 16.6C33.4172 17.6667 32.5905 18.76 31.7372 19.88C32.1639 19.8267 32.5639 19.8 32.9372 19.8C33.3639 19.8 33.7639 19.8 34.1372 19.8C35.0972 19.8 36.0572 19.8267 37.0172 19.88C38.0305 19.9333 39.0172 20.0133 39.9772 20.12C40.9905 20.2267 42.1905 20.4133 43.5772 20.68C45.0172 20.9467 46.3772 21.3733 47.6572 21.96C48.9372 22.4933 49.8439 23.2667 50.3772 24.28C50.6439 24.8133 50.7505 25.2933 50.6972 25.72C51.7639 23.8533 53.0172 21.72 54.4572 19.32C55.8972 16.8667 57.3639 14.4933 58.8572 12.2C60.3505 9.90666 61.6839 7.96 62.8572 6.36C64.0839 4.70666 64.9905 3.74667 65.5772 3.48C66.1105 3.26666 66.6172 3.16 67.0972 3.16C67.3105 3.16 67.6039 3.21333 67.9772 3.32C68.4039 3.37333 68.6172 3.53333 68.6172 3.8C68.6172 4.01333 68.5372 4.25333 68.3772 4.52C68.2172 4.73333 68.0839 4.92 67.9772 5.08C65.2039 8.81333 62.4572 12.5733 59.7372 16.36C57.0172 20.1467 54.4572 24.0667 52.0572 28.12C50.6172 30.52 49.2839 32.9733 48.0572 35.48C46.8305 37.9333 45.6305 40.44 44.4572 43C44.4039 43.1067 44.2972 43.2667 44.1372 43.48C44.0305 43.7467 43.8972 43.88 43.7372 43.88C43.5239 43.88 43.3905 43.7467 43.3372 43.48C43.3372 43.2667 43.3372 43.1333 43.3372 43.08C43.3372 42.6533 43.2839 42.28 43.1772 41.96C43.1239 41.5867 43.1505 41.2133 43.2572 40.84C43.8972 38.9733 44.6439 37.16 45.4972 35.4C46.4039 33.5867 47.3105 31.8533 48.2172 30.2C48.3772 29.8267 48.6172 29.3467 48.9372 28.76C49.3105 28.1733 49.7105 27.48 50.1372 26.68C50.0839 26.5733 50.0039 26.44 49.8972 26.28C49.7905 26.0667 49.6039 25.9067 49.3372 25.8C48.5372 25.2667 47.4705 24.84 46.1372 24.52C44.8572 24.2 43.5505 23.9867 42.2172 23.88C40.8839 23.72 39.7372 23.64 38.7772 23.64C37.1239 23.64 35.5505 23.6933 34.0572 23.8C32.6172 23.8533 31.0439 24.0133 29.3372 24.28C27.3639 27.32 25.3372 30.44 23.2572 33.64C21.1772 36.7867 19.2572 39.96 17.4972 43.16C17.3372 43.3733 17.0705 43.7467 16.6972 44.28C16.3772 44.8133 16.0572 45.08 15.7372 45.08ZM60.4441 43.08C58.9507 43.08 57.5107 42.7067 56.1241 41.96C54.7374 41.2133 54.0441 39.9867 54.0441 38.28C54.0441 38.0667 54.0441 37.88 54.0441 37.72C54.0974 37.5067 54.1507 37.2933 54.2041 37.08C54.6307 35.2667 55.4041 33.48 56.5241 31.72C57.6974 29.96 59.0841 28.3067 60.6841 26.76C62.3374 25.2133 64.0441 23.8533 65.8041 22.68C67.6174 21.4533 69.3507 20.52 71.0041 19.88C71.1641 19.7733 71.3241 19.6933 71.4841 19.64C71.6441 19.5867 71.8307 19.56 72.0441 19.56C72.5241 19.56 72.9241 19.8267 73.2441 20.36C73.5641 20.84 73.8041 21.4 73.9641 22.04C74.1241 22.68 74.2041 23.1867 74.2041 23.56C74.2041 24.52 73.9107 25.5067 73.3241 26.52C72.7907 27.48 72.1774 28.28 71.4841 28.92C71.8041 28.92 72.1241 28.9467 72.4441 29C72.7641 29 73.0841 29 73.4041 29C73.5107 29 73.5641 29.0533 73.5641 29.16C73.5641 29.2133 73.5107 29.2667 73.4041 29.32C73.2974 29.3733 73.1907 29.4267 73.0841 29.48L70.6841 29.72C69.1907 29.88 67.6441 30.12 66.0441 30.44C64.4441 30.76 62.9241 31.1867 61.4841 31.72C60.7907 32.68 60.0974 33.88 59.4041 35.32C58.7107 36.76 58.3641 38.0933 58.3641 39.32C58.3641 40.0133 58.5241 40.6267 58.8441 41.16C59.1641 41.64 59.7241 41.88 60.5241 41.88C61.0041 41.88 61.4841 41.8 61.9641 41.64C62.4974 41.4267 62.9774 41.2133 63.4041 41C65.9641 39.72 68.2574 38.2 70.2841 36.44C72.3107 34.6267 74.2841 32.68 76.2041 30.6C76.3107 30.4933 76.3907 30.44 76.4441 30.44C76.5507 30.44 76.6041 30.4933 76.6041 30.6C76.6041 30.76 76.5507 30.9467 76.4441 31.16C76.3374 31.32 76.2307 31.4533 76.1241 31.56C74.6841 33.3733 73.0307 35.2133 71.1641 37.08C69.2974 38.8933 67.4041 40.4133 65.4841 41.64C63.9907 42.6 62.3107 43.08 60.4441 43.08ZM63.4841 29.32C64.7107 29.2133 65.9374 29.1333 67.1641 29.08C68.3907 28.9733 69.6174 28.92 70.8441 28.92C71.1641 28.4933 71.4307 27.9333 71.6441 27.24C71.9107 26.4933 72.0441 25.8533 72.0441 25.32C72.0441 25.0533 71.9907 24.7867 71.8841 24.52C71.7774 24.2 71.5374 24.04 71.1641 24.04H70.9241C70.2841 24.2533 69.4574 24.68 68.4441 25.32C67.4841 25.96 66.5507 26.6533 65.6441 27.4C64.7374 28.1467 64.0174 28.7867 63.4841 29.32ZM70.1559 55.64C69.1426 55.64 68.1826 55.4 67.2759 54.92C66.3693 54.4933 65.7293 53.7467 65.3559 52.68L66.0759 52.52C66.2893 53.2667 66.6893 53.7733 67.2759 54.04C67.8093 54.36 68.4226 54.52 69.1159 54.52C70.4493 54.52 71.6493 54.2267 72.7159 53.64C74.3693 52.84 75.9959 51.48 77.5959 49.56C79.1959 47.64 80.7159 45.4533 82.1559 43C83.6493 40.6 84.9826 38.2533 86.1559 35.96C87.3826 33.6133 88.3959 31.64 89.1959 30.04C88.7693 30.68 88.0759 31.64 87.1159 32.92C86.2093 34.2 85.1959 35.5867 84.0759 37.08C82.9559 38.52 81.8626 39.8 80.7959 40.92C79.7826 41.9867 78.9559 42.6533 78.3159 42.92C77.6759 43.1867 77.1426 43.32 76.7159 43.32C75.7026 43.32 74.8759 42.9467 74.2359 42.2C73.5959 41.4533 73.2759 40.5733 73.2759 39.56C73.2759 37.96 73.6226 36.2533 74.3159 34.44C75.0626 32.6267 75.9159 30.8933 76.8759 29.24C77.8893 27.5867 78.7426 26.12 79.4359 24.84C80.1826 23.56 80.5559 22.6533 80.5559 22.12C80.5559 21.8533 80.4759 21.6933 80.3159 21.64C81.2759 21.2133 82.1559 21 82.9559 21C83.4893 21 84.1559 21.1333 84.9559 21.4C85.8093 21.6133 86.2359 22.0667 86.2359 22.76C86.2359 22.9733 86.1826 23.1867 86.0759 23.4C85.9693 23.56 85.8626 23.72 85.7559 23.88C84.2093 26.0667 82.6893 28.3067 81.1959 30.6C79.7559 32.84 78.5026 35.24 77.4359 37.8C77.3293 38.12 77.1959 38.4667 77.0359 38.84C76.9293 39.16 76.8759 39.5333 76.8759 39.96C76.8759 40.8667 77.3293 41.32 78.2359 41.32C78.8226 41.32 79.5959 40.84 80.5559 39.88C81.5693 38.8667 82.6626 37.5867 83.8359 36.04C85.0093 34.4933 86.1559 32.8933 87.2759 31.24C88.3959 29.5867 89.3826 28.0667 90.2359 26.68C91.1426 25.2933 91.7826 24.3067 92.1559 23.72C92.4226 23.24 92.8226 22.6 93.3559 21.8C93.9426 20.9467 94.5559 20.1733 95.1959 19.48C95.8893 18.7867 96.5293 18.44 97.1159 18.44C97.5959 18.44 98.0226 18.6533 98.3959 19.08C98.7693 19.4533 98.9559 19.8533 98.9559 20.28C98.9559 20.92 98.6359 21.24 97.9959 21.24C96.6626 21.24 95.5693 21.56 94.7159 22.2C93.8626 22.84 93.1426 23.7733 92.5559 25C91.4893 27.4 90.5826 29.9867 89.8359 32.76C89.0893 35.48 88.2893 38.2 87.4359 40.92C86.5826 43.64 85.4893 46.0933 84.1559 48.28C82.8226 50.52 81.0359 52.3067 78.7959 53.64C76.5559 54.9733 73.6759 55.64 70.1559 55.64Z" fill="white"/>
</g>
<defs>
<clipPath id="clip0_2009_2">
<rect width="109" height="57" fill="white"/>
</clipPath>
</defs>
</svg>
